<svg xmlns="http://www.w3.org/2000/svg" width="1200" height="1200" viewBox="0 0 1200 1200" version="1.1"><path d="M 595.937 31.374 C 595.697 31.602, 593.025 32.019, 590 32.300 C 586.975 32.581, 582.250 33.322, 579.500 33.947 C 573.475 35.315, 558.029 42.760, 557.307 44.644 C 557.023 45.383, 556.359 45.722, 555.831 45.395 C 555.303 45.069, 529.914 69.709, 499.412 100.151 L 443.952 155.500 509.565 221.098 L 575.179 286.696 580.839 285.343 C 591.543 282.785, 606.179 281.987, 615.500 283.454 C 621.207 284.352, 632.775 287.785, 637.713 290.046 C 640.029 291.107, 642.504 292.093, 643.213 292.238 C 643.921 292.382, 644.725 292.755, 645 293.066 C 645.275 293.377, 647.750 295.151, 650.500 297.009 C 657.065 301.442, 667.141 311.085, 672.617 318.174 C 675.028 321.295, 677 324.150, 677 324.520 C 677 324.889, 677.806 326.386, 678.790 327.846 C 679.775 329.306, 681.522 332.975, 682.674 336 C 683.825 339.025, 685.376 343.075, 686.121 345 C 686.866 346.925, 687.376 348.815, 687.254 349.201 C 687.133 349.586, 687.499 352.286, 688.069 355.201 C 689.179 360.872, 689.448 376.873, 688.504 381 C 688.189 382.375, 687.658 385.651, 687.323 388.279 C 686.988 390.908, 686.329 393.297, 685.857 393.588 C 682.525 395.648, 686.637 400.143, 747.768 461.268 L 810.536 524.030 815.662 522.508 C 818.481 521.671, 822.298 520.728, 824.144 520.412 C 829.543 519.490, 850.361 519.221, 852.010 520.052 C 852.841 520.471, 855.586 521.029, 858.111 521.292 C 860.637 521.555, 863.640 522.272, 864.786 522.885 C 865.931 523.498, 867.798 524, 868.934 524 C 870.070 524, 871 524.360, 871 524.799 C 871 525.239, 872.486 526.135, 874.301 526.792 C 878.285 528.233, 891.205 535.882, 892.235 537.410 C 892.639 538.009, 892.976 538.193, 892.985 537.817 C 892.993 537.441, 896.273 540.366, 900.273 544.317 C 904.272 548.268, 907.415 551.807, 907.256 552.182 C 907.097 552.556, 907.974 553.569, 909.206 554.432 C 910.437 555.294, 911.153 556, 910.795 556 C 910.155 556, 916.018 566.425, 917.906 568.643 C 918.442 569.272, 918.607 570.060, 918.273 570.393 C 917.940 570.727, 918.267 571, 919 571 C 919.733 571, 920.051 571.282, 919.707 571.627 C 919.362 571.972, 919.746 573.542, 920.560 575.116 C 921.374 576.691, 922.044 578.321, 922.049 578.740 C 922.054 579.158, 922.542 581.298, 923.134 583.496 C 925.383 591.851, 926.260 598.100, 926.221 605.500 C 926.182 612.984, 924.366 626.448, 923.069 628.871 C 922.533 629.872, 921.885 631.850, 921.628 633.266 C 921.169 635.798, 917.744 643.127, 912.874 652 C 911.515 654.475, 908.175 658.923, 905.452 661.885 C 902.728 664.846, 900.624 667.692, 900.775 668.209 C 900.926 668.726, 900.654 668.904, 900.170 668.605 C 899.686 668.306, 898.213 669.224, 896.895 670.646 C 891.105 676.892, 874.437 686.357, 864 689.326 C 854.584 692.004, 852.845 692.228, 840 692.419 C 830.416 692.562, 825.867 692.164, 820.500 690.713 C 816.650 689.673, 812.783 688.676, 811.906 688.498 C 806.713 687.445, 788.948 677.720, 784.508 673.500 C 783.350 672.400, 780.850 670.105, 778.952 668.399 C 772.947 663.005, 767.164 655.245, 763.003 647 C 761.753 644.525, 760.229 642.169, 759.616 641.765 C 759.002 641.361, 758.812 641.024, 759.194 641.015 C 759.575 641.007, 759.048 639.087, 758.023 636.750 C 753.192 625.740, 751.259 605.339, 753.784 592 C 754.565 587.875, 755.381 583.547, 755.597 582.383 C 755.814 581.219, 756.681 578.614, 757.525 576.594 L 759.059 572.922 700.009 514.211 L 640.958 455.500 640.979 610.301 L 641 765.102 644.750 766.663 C 646.813 767.522, 648.725 768.543, 649 768.932 C 649.275 769.321, 651.975 771.465, 655 773.695 C 661.176 778.249, 669 785.699, 669 787.027 C 669 787.508, 669.604 788.260, 670.343 788.700 C 671.081 789.140, 672.533 790.850, 673.569 792.500 C 674.606 794.150, 675.689 795.725, 675.977 796 C 676.693 796.685, 684.361 812.256, 684.594 813.500 C 684.697 814.050, 685.550 817.425, 686.489 821 C 687.429 824.575, 688.429 828.850, 688.713 830.500 C 689.713 836.308, 688.950 853.323, 687.381 860.226 C 685.485 868.558, 685.412 868.848, 684.461 871.846 C 683.710 874.213, 676.977 887.798, 674.719 891.500 C 671.684 896.479, 662.473 905.917, 654.966 911.741 C 651.960 914.074, 648.938 916.454, 648.250 917.030 C 647.563 917.607, 647 917.830, 647 917.527 C 647 917.223, 645.313 918.035, 643.250 919.332 C 627.182 929.429, 594.022 932.330, 575.500 925.259 C 563.534 920.691, 549.674 912.379, 542.443 905.436 C 536.669 899.891, 522.884 881, 524.612 881 C 524.960 881, 524.647 880.280, 523.916 879.399 C 523.186 878.519, 522.505 877.281, 522.404 876.649 C 522.304 876.017, 521.290 872.757, 520.152 869.405 C 518.096 863.348, 517.813 862.080, 516.382 852.500 C 514.803 841.935, 516.173 828.593, 520.129 816 C 522.282 809.146, 529.884 793, 530.958 793 C 531.305 793, 533.369 790.642, 535.545 787.759 C 537.720 784.877, 540.625 781.547, 542 780.361 C 543.375 779.174, 545.850 777.006, 547.500 775.543 C 549.150 774.080, 551.737 772.223, 553.250 771.416 C 554.763 770.609, 556 769.510, 556 768.974 C 556 768.438, 556.643 768, 557.429 768 C 558.214 768, 559.564 767.293, 560.429 766.429 C 561.293 765.564, 562 765.123, 562 765.449 C 562 765.774, 563.800 765.122, 566 764 L 570 761.959 570 605.588 L 570 449.217 567.750 448.645 C 564.219 447.747, 551.537 439.833, 545.886 435 C 539.596 429.621, 539.121 429.141, 536 425 C 534.625 423.176, 532.938 421.112, 532.250 420.413 C 531.563 419.714, 531 418.816, 531 418.416 C 531 418.016, 529.939 416.296, 528.643 414.594 C 526.303 411.522, 520.242 398.580, 519.426 394.914 C 519.192 393.861, 518.752 391.988, 518.449 390.750 C 514.628 375.155, 515.320 354.619, 520.082 342.342 C 522.875 335.139, 526.541 339.375, 458.309 270.941 C 423.245 235.773, 394.142 207, 393.636 207 C 392.496 207, 48.077 551.687, 46 554.907 C 45.175 556.185, 43.774 558.192, 42.887 559.366 C 40.265 562.837, 37.036 569.703, 37.710 570.376 C 38.053 570.719, 37.733 571, 37 571 C 36.267 571, 35.963 571.296, 36.325 571.658 C 36.687 572.020, 36.521 572.873, 35.956 573.553 C 35.392 574.233, 35.018 575.174, 35.126 575.645 C 35.235 576.115, 34.788 577.800, 34.134 579.389 C 33.479 580.977, 33.178 582.511, 33.463 582.797 C 33.749 583.082, 33.499 583.898, 32.909 584.610 C 32.318 585.322, 31.778 590.088, 31.709 595.202 C 31.536 607.912, 32.855 617.824, 35.339 622.500 C 35.924 623.600, 36.548 625.380, 36.726 626.457 C 36.905 627.533, 37.399 628.658, 37.825 628.957 C 38.251 629.255, 39.809 632.087, 41.287 635.250 C 42.765 638.413, 44.430 641, 44.987 641 C 45.544 641, 46 641.675, 46 642.500 C 46 643.325, 46.353 644, 46.784 644 C 47.216 644, 48.371 645.358, 49.351 647.018 C 50.332 648.677, 51.554 649.776, 52.067 649.459 C 52.580 649.141, 53 649.268, 53 649.740 C 53 650.212, 103.467 701.201, 165.150 763.049 C 226.832 824.897, 276.938 874.868, 276.495 874.095 C 275.956 873.153, 276.071 872.926, 276.845 873.405 C 277.480 873.797, 278 874.711, 278 875.437 C 278 876.162, 278.788 877.373, 279.750 878.128 C 281.373 879.400, 281.391 879.355, 280 877.500 C 278.609 875.645, 278.627 875.600, 280.250 876.872 C 281.213 877.627, 282 878.810, 282 879.500 C 282 880.190, 282.788 881.373, 283.750 882.128 C 285.373 883.400, 285.391 883.355, 284 881.500 C 282.609 879.645, 282.627 879.600, 284.250 880.872 C 285.213 881.627, 286 882.838, 286 883.563 C 286 884.289, 286.520 885.203, 287.155 885.595 C 287.918 886.068, 288.035 885.866, 287.500 885 C 286.965 884.134, 287.082 883.932, 287.845 884.405 C 288.480 884.797, 289 885.711, 289 886.437 C 289 887.162, 289.788 888.373, 290.750 889.128 C 292.373 890.400, 292.391 890.355, 291 888.500 C 289.609 886.645, 289.627 886.600, 291.250 887.872 C 292.212 888.627, 293 889.810, 293 890.500 C 293 891.190, 293.787 892.373, 294.750 893.128 C 296.373 894.400, 296.391 894.355, 295 892.500 C 293.609 890.645, 293.627 890.600, 295.250 891.872 C 296.213 892.627, 297 893.838, 297 894.563 C 297 895.289, 297.520 896.203, 298.155 896.595 C 298.918 897.068, 299.035 896.866, 298.500 896 C 297.965 895.134, 298.082 894.932, 298.845 895.405 C 299.480 895.797, 300 896.682, 300 897.372 C 300 898.062, 301.463 899.948, 303.250 901.563 L 306.500 904.500 303.500 901 L 300.500 897.500 303.750 900.437 C 305.537 902.052, 307 903.938, 307 904.628 C 307 905.318, 307.520 906.203, 308.155 906.595 C 308.918 907.068, 309.035 906.866, 308.500 906 C 307.965 905.134, 308.082 904.932, 308.845 905.405 C 309.480 905.797, 310 906.740, 310 907.500 C 310 908.260, 310.520 909.203, 311.155 909.595 C 311.918 910.068, 312.035 909.866, 311.500 909 C 310.965 908.134, 311.082 907.932, 311.845 908.405 C 312.480 908.797, 313 909.793, 313 910.618 C 313 911.443, 313.450 911.840, 314 911.500 C 314.550 911.160, 315 911.557, 315 912.382 C 315 913.207, 315.520 914.203, 316.155 914.595 C 316.918 915.068, 317.035 914.866, 316.500 914 C 315.965 913.134, 316.082 912.932, 316.845 913.405 C 317.480 913.797, 318 914.793, 318 915.618 C 318 916.443, 318.450 916.840, 319 916.500 C 319.550 916.160, 320 916.610, 320 917.500 C 320 918.390, 320.450 918.840, 321 918.500 C 321.550 918.160, 322 918.610, 322 919.500 C 322 920.390, 322.450 920.840, 323 920.500 C 323.550 920.160, 324 920.610, 324 921.500 C 324 922.390, 324.418 922.860, 324.928 922.544 C 325.438 922.229, 326.146 922.884, 326.500 924 C 326.854 925.116, 327.562 925.771, 328.072 925.456 C 328.582 925.140, 329 925.414, 329 926.064 C 329 927.542, 375.058 974.082, 375.966 973.521 C 376.568 973.149, 507.355 1103.740, 538.688 1136 C 555.912 1153.733, 558.962 1156.276, 568.748 1161.061 C 578.986 1166.066, 594.413 1169.311, 603.482 1168.367 C 606.792 1168.023, 610.400 1167.783, 611.500 1167.834 C 612.600 1167.885, 615.300 1167.418, 617.500 1166.796 C 619.700 1166.174, 622.344 1165.509, 623.376 1165.319 C 625.929 1164.849, 632.358 1161.810, 633.112 1160.717 C 633.448 1160.229, 634.029 1159.900, 634.403 1159.987 C 634.776 1160.074, 637.651 1158.720, 640.791 1156.978 C 645.354 1154.447, 697.223 1103.108, 899.250 901.158 C 1038.263 762.199, 1152 647.942, 1152 647.253 C 1152 646.564, 1152.446 646, 1152.991 646 C 1154.087 646, 1160.632 634.945, 1160.244 633.750 C 1160.110 633.337, 1160.401 633, 1160.892 633 C 1161.761 633, 1163.491 628.244, 1163.164 626.750 C 1163.074 626.337, 1163.413 626, 1163.917 626 C 1164.839 626, 1166.698 618.938, 1167.735 611.500 C 1168.987 602.506, 1167.981 586.505, 1165.835 581.305 C 1165.198 579.762, 1164.752 578.157, 1164.843 577.737 C 1165.164 576.261, 1159.112 564, 1158.063 564 C 1157.478 564, 1157.112 563.590, 1157.250 563.088 C 1157.720 561.374, 1148.323 549.319, 1146.853 549.750 C 1146.384 549.888, 1146 549.298, 1146 548.441 C 1146 547.584, 1145.582 547.140, 1145.072 547.456 C 1144.562 547.771, 1143.846 547.089, 1143.481 545.939 C 1143.116 544.790, 1142.586 544.081, 1142.303 544.364 C 1142.020 544.646, 1140.036 542.853, 1137.894 540.378 C 1135.753 537.903, 1133.997 536.243, 1133.993 536.689 C 1133.990 537.135, 1133.168 536.259, 1132.168 534.742 C 1131.168 533.225, 1130.087 532.246, 1129.766 532.567 C 1129.445 532.888, 1128.884 532.210, 1128.519 531.061 C 1128.154 529.911, 1127.471 529.209, 1127 529.500 C 1126.529 529.791, 1125.854 529.116, 1125.500 528 C 1125.146 526.884, 1124.438 526.229, 1123.928 526.544 C 1123.418 526.860, 1123 526.505, 1123 525.755 C 1123 525.006, 1121.313 522.842, 1119.250 520.946 L 1115.500 517.500 1119 521.322 C 1120.925 523.424, 1051.381 453.899, 964.457 366.822 C 620.516 22.273, 641.431 43.028, 638.882 43.750 C 638.397 43.888, 638 43.567, 638 43.038 C 638 42.010, 623.740 34.814, 622.336 35.133 C 621.876 35.237, 620.192 34.785, 618.593 34.126 C 616.994 33.468, 613.394 32.693, 610.593 32.403 C 597.975 31.097, 596.349 30.983, 595.937 31.374 M 354 951.500 C 365.815 963.325, 375.708 973, 375.983 973 C 376.258 973, 366.815 963.325, 355 951.500 C 343.185 939.675, 333.292 930, 333.017 930 C 332.742 930, 342.185 939.675, 354 951.500" stroke="none" fill="#ec5231" fill-rule="evenodd"/><path d="M 509 221.500 C 544.472 256.975, 573.719 286, 573.994 286 C 574.269 286, 545.472 256.975, 510 221.500 C 474.528 186.025, 445.281 157, 445.006 157 C 444.731 157, 473.528 186.025, 509 221.500 M 805.041 207.194 C 805.293 207.576, 876.666 279.126, 963.646 366.194 C 1050.626 453.262, 1119.167 521.575, 1115.959 518 C 1110.801 512.252, 803.887 205.449, 805.041 207.194 M 227.486 372.250 L 214.500 385.500 227.750 372.514 C 240.058 360.452, 241.453 359, 240.736 359 C 240.590 359, 234.628 364.962, 227.486 372.250 M 672.500 487 C 689.543 504.050, 703.713 518, 703.988 518 C 704.263 518, 690.543 504.050, 673.500 487 C 656.457 469.950, 642.287 456, 642.012 456 C 641.737 456, 655.457 469.950, 672.500 487 M 129.500 728 C 148.194 746.700, 163.714 762, 163.989 762 C 164.264 762, 149.194 746.700, 130.500 728 C 111.806 709.300, 96.286 694, 96.011 694 C 95.736 694, 110.806 709.300, 129.500 728 M 375.750 973.500 C 399.467 997.700, 448.009 1046.525, 483.621 1082 C 519.233 1117.475, 537.965 1135.700, 525.248 1122.500 C 512.532 1109.300, 463.990 1060.475, 417.377 1014 C 358.870 955.665, 345.980 943.124, 375.750 973.500" stroke="none" fill="#f45433" fill-rule="evenodd"/></svg>