<svg version="1.1" id="Layer_1" xmlns="http://www.w3.org/2000/svg" xmlns:xlink="http://www.w3.org/1999/xlink" x="0px" y="0px"
	 width="100%" viewBox="0 0 1051 1025" enable-background="new 0 0 1051 1025" xml:space="preserve">
<path fill="#330000" opacity="1.000000" stroke="none" 
	d="
M0.999992,867.000000 
	C1.000000,631.638611 1.000000,396.277252 1.329686,160.297287 
	C2.114069,158.654465 2.716590,157.669510 3.000667,156.599976 
	C5.944508,145.516571 8.145600,134.181198 11.871972,123.370453 
	C23.584101,89.391907 44.469891,61.782734 72.584259,39.687637 
	C97.138176,20.390713 125.044586,8.380768 155.835861,3.058770 
	C157.298813,2.805913 158.615311,1.705637 160.000000,1.000001 
	C404.028046,1.000000 648.056091,1.000000 892.702759,1.329709 
	C894.345581,2.114335 895.330505,2.717227 896.400085,3.001318 
	C907.483765,5.945217 918.816101,8.153893 929.630981,11.871282 
	C963.629456,23.557482 991.202393,44.476711 1013.320557,72.579124 
	C1032.645752,97.132874 1044.567017,125.067612 1049.939941,155.835724 
	C1050.195435,157.299118 1051.293945,158.615280 1052.000000,160.000000 
	C1052.000000,395.361359 1052.000000,630.722717 1051.670898,866.701782 
	C1050.845825,868.672607 1050.142578,869.987427 1049.883789,871.384583 
	C1041.709351,915.506775 1021.066956,952.445435 986.850891,981.735107 
	C960.247925,1004.507629 929.601440,1018.283997 895.177063,1024.016724 
	C893.715210,1024.260132 892.389282,1025.320312 891.000000,1026.000000 
	C648.305298,1026.000000 405.610596,1026.000000 162.292923,1025.668213 
	C160.808670,1024.910278 159.984970,1024.227905 159.080582,1024.095215 
	C137.298599,1020.898560 116.877304,1013.816406 97.522827,1003.320923 
	C73.894379,990.507629 54.174252,973.274109 37.970642,951.930481 
	C19.817318,928.018860 8.571204,901.101624 3.134823,871.652771 
	C2.834514,870.025940 1.730103,868.547485 0.999992,867.000000 
M297.085602,485.554565 
	C287.868652,512.106995 278.658508,538.661804 269.433289,565.211365 
	C252.347397,614.383240 235.242340,663.548462 218.171738,712.725708 
	C215.308121,720.975281 216.781494,723.072693 225.255951,723.075256 
	C251.082443,723.083130 276.908936,723.084290 302.735443,723.074036 
	C309.618866,723.071350 311.112457,722.010498 313.208252,715.551331 
	C323.679260,683.279785 334.203094,651.024963 344.491455,618.695251 
	C345.663361,615.012695 347.225311,613.931763 351.045563,613.942505 
	C401.531830,614.084473 452.018951,614.120850 502.504700,613.906189 
	C507.501617,613.885010 509.570709,615.252869 511.182373,620.058289 
	C521.917542,652.066772 533.058167,683.938965 544.012512,715.874207 
	C545.391479,719.894409 547.001404,723.134277 552.135010,723.118713 
	C582.293457,723.027100 612.452332,723.098267 642.610901,723.046265 
	C647.696411,723.037537 649.073914,721.028687 647.759644,716.013000 
	C647.423767,714.731140 646.858948,713.510132 646.414429,712.255859 
	C594.023865,564.429993 541.601135,416.615387 489.380463,268.729462 
	C487.487915,263.369843 484.960907,261.442444 479.417664,261.470032 
	C443.761322,261.647583 408.103668,261.551361 372.446442,261.568298 
	C366.249237,261.571228 365.179108,262.517792 365.239685,268.865814 
	C365.377991,283.363037 362.556641,297.294586 357.812988,310.920837 
	C337.636536,368.878052 317.490906,426.846069 297.085602,485.554565 
M696.340759,633.499756 
	C696.341187,660.820740 696.328003,688.141785 696.350342,715.462769 
	C696.357178,723.834656 697.813843,725.247742 706.286926,725.251770 
	C731.608765,725.263672 756.930664,725.256348 782.252502,725.256226 
	C794.480713,725.256165 794.509827,725.232666 794.510010,713.130676 
	C794.511475,605.013062 794.510986,496.895416 794.510986,388.777771 
	C794.510986,374.995758 794.510742,374.995728 780.973022,374.995758 
	C755.317993,374.995819 729.662964,374.986145 704.007935,375.003082 
	C697.749939,375.007202 696.503723,376.277679 696.352295,382.613159 
	C696.312500,384.278198 696.340942,385.944855 696.340942,387.610779 
	C696.340698,469.240417 696.340759,550.870056 696.340759,633.499756 
M691.753418,287.388763 
	C692.649658,301.929993 697.542419,314.939392 708.628967,324.561157 
	C726.083862,339.709869 746.549866,342.231293 767.582458,334.358643 
	C788.305847,326.601685 798.536987,309.859009 800.408630,288.244843 
	C803.504517,252.493103 778.836975,221.975174 735.279175,229.429810 
	C711.379517,233.520111 689.568176,253.870834 691.753418,287.388763 
z"/>
<path fill="#000000" opacity="1.000000" stroke="none" 
	d="
M0.999992,867.468628 
	C1.730103,868.547485 2.834514,870.025940 3.134823,871.652771 
	C8.571204,901.101624 19.817318,928.018860 37.970642,951.930481 
	C54.174252,973.274109 73.894379,990.507629 97.522827,1003.320923 
	C116.877304,1013.816406 137.298599,1020.898560 159.080582,1024.095215 
	C159.984970,1024.227905 160.808670,1024.910278 161.834976,1025.668213 
	C108.406792,1026.000000 54.813580,1026.000000 1.000000,1026.000000 
	C1.000000,973.312622 1.000000,920.625000 0.999992,867.468628 
z"/>
<path fill="#000000" opacity="1.000000" stroke="none" 
	d="
M891.468628,1026.000000 
	C892.389282,1025.320312 893.715210,1024.260132 895.177063,1024.016724 
	C929.601440,1018.283997 960.247925,1004.507629 986.850891,981.735107 
	C1021.066956,952.445435 1041.709351,915.506775 1049.883789,871.384583 
	C1050.142578,869.987427 1050.845825,868.672607 1051.670898,867.159668 
	C1052.000000,919.927429 1052.000000,972.854919 1052.000000,1026.000000 
	C998.645996,1026.000000 945.291626,1026.000000 891.468628,1026.000000 
z"/>
<path fill="#000000" opacity="1.000000" stroke="none" 
	d="
M159.531342,1.000001 
	C158.615311,1.705637 157.298813,2.805913 155.835861,3.058770 
	C125.044586,8.380768 97.138176,20.390713 72.584259,39.687637 
	C44.469891,61.782734 23.584101,89.391907 11.871972,123.370453 
	C8.145600,134.181198 5.944508,145.516571 3.000667,156.599976 
	C2.716590,157.669510 2.114069,158.654465 1.329686,159.839340 
	C1.000000,107.072990 1.000000,54.145981 1.000000,1.000000 
	C53.687359,1.000000 106.375023,1.000000 159.531342,1.000001 
z"/>
<path fill="#000000" opacity="1.000000" stroke="none" 
	d="
M1052.000000,159.531342 
	C1051.293945,158.615280 1050.195435,157.299118 1049.939941,155.835724 
	C1044.567017,125.067612 1032.645752,97.132874 1013.320557,72.579124 
	C991.202393,44.476711 963.629456,23.557482 929.630981,11.871282 
	C918.816101,8.153893 907.483765,5.945217 896.400085,3.001318 
	C895.330505,2.717227 894.345581,2.114335 893.160645,1.329709 
	C945.927002,1.000000 998.854004,1.000000 1052.000000,1.000000 
	C1052.000000,53.687359 1052.000000,106.375023 1052.000000,159.531342 
z"/>
<path fill="#FF9A00" opacity="1.000000" stroke="none" 
	d="
M297.209808,485.182343 
	C317.490906,426.846069 337.636536,368.878052 357.812988,310.920837 
	C362.556641,297.294586 365.377991,283.363037 365.239685,268.865814 
	C365.179108,262.517792 366.249237,261.571228 372.446442,261.568298 
	C408.103668,261.551361 443.761322,261.647583 479.417664,261.470032 
	C484.960907,261.442444 487.487915,263.369843 489.380463,268.729462 
	C541.601135,416.615387 594.023865,564.429993 646.414429,712.255859 
	C646.858948,713.510132 647.423767,714.731140 647.759644,716.013000 
	C649.073914,721.028687 647.696411,723.037537 642.610901,723.046265 
	C612.452332,723.098267 582.293457,723.027100 552.135010,723.118713 
	C547.001404,723.134277 545.391479,719.894409 544.012512,715.874207 
	C533.058167,683.938965 521.917542,652.066772 511.182373,620.058289 
	C509.570709,615.252869 507.501617,613.885010 502.504700,613.906189 
	C452.018951,614.120850 401.531830,614.084473 351.045563,613.942505 
	C347.225311,613.931763 345.663361,615.012695 344.491455,618.695251 
	C334.203094,651.024963 323.679260,683.279785 313.208252,715.551331 
	C311.112457,722.010498 309.618866,723.071350 302.735443,723.074036 
	C276.908936,723.084290 251.082443,723.083130 225.255951,723.075256 
	C216.781494,723.072693 215.308121,720.975281 218.171738,712.725708 
	C235.242340,663.548462 252.347397,614.383240 269.433289,565.211365 
	C278.658508,538.661804 287.868652,512.106995 297.209808,485.182343 
M458.300110,448.165436 
	C447.614197,413.221985 436.928284,378.278534 426.305176,343.540497 
	C426.379242,343.292480 372.235840,524.597839 372.156799,524.862549 
	C408.795074,524.862549 445.354309,524.862549 482.566162,524.862549 
	C474.492645,499.263641 466.551239,474.083466 458.300110,448.165436 
z"/>
<path fill="#FD9900" opacity="1.000000" stroke="none" 
	d="
M696.340820,632.999756 
	C696.340759,550.870056 696.340698,469.240417 696.340942,387.610779 
	C696.340942,385.944855 696.312500,384.278198 696.352295,382.613159 
	C696.503723,376.277679 697.749939,375.007202 704.007935,375.003082 
	C729.662964,374.986145 755.317993,374.995819 780.973022,374.995758 
	C794.510742,374.995728 794.510986,374.995758 794.510986,388.777771 
	C794.510986,496.895416 794.511475,605.013062 794.510010,713.130676 
	C794.509827,725.232666 794.480713,725.256165 782.252502,725.256226 
	C756.930664,725.256348 731.608765,725.263672 706.286926,725.251770 
	C697.813843,725.247742 696.357178,723.834656 696.350342,715.462769 
	C696.328003,688.141785 696.341187,660.820740 696.340820,632.999756 
z"/>
<path fill="#FE9900" opacity="1.000000" stroke="none" 
	d="
M691.743896,286.904053 
	C689.568176,253.870834 711.379517,233.520111 735.279175,229.429810 
	C778.836975,221.975174 803.504517,252.493103 800.408630,288.244843 
	C798.536987,309.859009 788.305847,326.601685 767.582458,334.358643 
	C746.549866,342.231293 726.083862,339.709869 708.628967,324.561157 
	C697.542419,314.939392 692.649658,301.929993 691.743896,286.904053 
z"/>
<path fill="#340100" opacity="1.000000" stroke="none" 
	d="
M458.454956,448.534363 
	C466.551239,474.083466 474.492645,499.263641 482.566162,524.862549 
	C445.354309,524.862549 408.795074,524.862549 372.156799,524.862549 
	C372.235840,524.597839 426.379242,343.292480 426.305176,343.540497 
	C436.928284,378.278534 447.614197,413.221985 458.454956,448.534363 
z"/>
</svg>