<svg version="1.1" id="Layer_1" xmlns="http://www.w3.org/2000/svg" xmlns:xlink="http://www.w3.org/1999/xlink" x="0px" y="0px"
	 width="100%" viewBox="0 0 512 500" enable-background="new 0 0 512 500" xml:space="preserve">
<path fill="#49021F" opacity="1.000000" stroke="none" 
	d="
M0.999999,429.000000 
	C1.000000,310.310699 1.000000,191.621384 1.332842,72.344490 
	C2.861029,68.716286 4.183478,65.718681 5.229331,62.627487 
	C9.370518,50.387543 15.607721,39.479481 24.458536,29.940357 
	C36.278332,17.201359 50.413895,8.522351 67.085274,3.783616 
	C68.845078,3.283406 70.367470,1.947954 72.000000,1.000000 
	C195.022644,1.000000 318.045288,1.000000 441.655579,1.332799 
	C444.031708,2.455004 445.819641,3.245758 447.608826,4.033590 
	C455.351074,7.442645 463.614960,10.009310 470.736115,14.420760 
	C490.288391,26.533133 503.411865,43.884838 509.945587,66.093796 
	C510.559723,68.181381 511.963074,70.036789 513.000000,72.000000 
	C513.000000,190.689316 513.000000,309.378632 512.665039,428.659546 
	C511.611938,430.884827 510.893372,432.518280 510.175842,434.152222 
	C506.718964,442.024078 504.133789,450.437622 499.641632,457.666077 
	C486.359772,479.038269 467.275635,492.789124 442.525513,498.385223 
	C440.585754,498.823761 438.837341,500.108490 437.000000,501.000000 
	C317.310699,501.000000 197.621384,501.000000 77.327789,500.662842 
	C74.741333,499.612183 72.768135,498.872467 70.775383,498.189850 
	C64.212135,495.941498 57.207321,494.535614 51.150749,491.333405 
	C27.158976,478.648560 10.784933,459.457764 3.426728,432.998596 
	C3.024600,431.552612 1.827210,430.327789 0.999999,429.000000 
M220.585114,268.557892 
	C220.670792,271.722290 220.687607,274.890259 220.852554,278.050507 
	C222.950424,318.244080 244.998672,345.415833 284.176056,354.204559 
	C315.888306,361.318634 346.750305,356.150696 376.629150,344.352966 
	C378.251221,343.712494 379.835632,340.587128 379.831726,338.621643 
	C379.812256,328.803436 378.952789,318.986725 378.938080,309.168671 
	C378.842255,245.182526 378.889893,181.196167 378.887054,117.209885 
	C378.886749,110.453506 378.876099,110.442169 371.924957,110.436371 
	C360.594055,110.426918 349.263153,110.424324 337.932251,110.437637 
	C331.181519,110.445572 331.162628,110.461708 331.159088,116.960335 
	C331.148712,135.956268 331.154907,154.952194 331.154633,173.948120 
	C331.154602,175.874878 331.154633,177.801651 331.154633,179.796219 
	C258.573395,172.921921 220.094818,224.307541 220.585114,268.557892 
M187.009598,161.500000 
	C187.008636,152.339493 186.890427,143.176788 187.061783,134.019516 
	C187.134995,130.107590 185.639465,128.756760 181.763580,128.811111 
	C169.773926,128.979248 157.773163,129.114838 145.791779,128.757538 
	C140.588303,128.602371 139.278564,130.484970 139.321442,135.377151 
	C139.519928,158.026978 139.406967,180.679535 139.407089,203.331116 
	C139.407349,251.465744 139.402359,299.600372 139.416382,347.734985 
	C139.418365,354.530609 139.718948,354.809235 146.391098,354.818390 
	C157.383759,354.833496 168.376465,354.829620 179.369141,354.820587 
	C186.903702,354.814423 187.007172,354.715088 187.007568,347.376892 
	C187.010880,285.751251 187.009537,224.125626 187.009598,161.500000 
z"/>
<path fill="#000000" opacity="1.000000" stroke="none" 
	d="
M0.999999,429.468658 
	C1.827210,430.327789 3.024600,431.552612 3.426728,432.998596 
	C10.784933,459.457764 27.158976,478.648560 51.150749,491.333405 
	C57.207321,494.535614 64.212135,495.941498 70.775383,498.189850 
	C72.768135,498.872467 74.741333,499.612183 76.861740,500.662842 
	C51.741772,501.000000 26.483547,501.000000 1.000000,501.000000 
	C1.000000,477.312927 1.000000,453.625122 0.999999,429.468658 
z"/>
<path fill="#000000" opacity="1.000000" stroke="none" 
	d="
M437.468658,501.000000 
	C438.837341,500.108490 440.585754,498.823761 442.525513,498.385223 
	C467.275635,492.789124 486.359772,479.038269 499.641632,457.666077 
	C504.133789,450.437622 506.718964,442.024078 510.175842,434.152222 
	C510.893372,432.518280 511.611938,430.884827 512.665039,429.125610 
	C513.000000,452.928833 513.000000,476.857697 513.000000,501.000000 
	C487.979523,501.000000 462.958405,501.000000 437.468658,501.000000 
z"/>
<path fill="#000000" opacity="1.000000" stroke="none" 
	d="
M71.531342,1.000000 
	C70.367470,1.947954 68.845078,3.283406 67.085274,3.783616 
	C50.413895,8.522351 36.278332,17.201359 24.458536,29.940357 
	C15.607721,39.479481 9.370518,50.387543 5.229331,62.627487 
	C4.183478,65.718681 2.861029,68.716286 1.332842,71.878448 
	C1.000000,48.406475 1.000000,24.812954 1.000000,1.000000 
	C24.353769,1.000000 47.708225,1.000000 71.531342,1.000000 
z"/>
<path fill="#000000" opacity="1.000000" stroke="none" 
	d="
M513.000000,71.531342 
	C511.963074,70.036789 510.559723,68.181381 509.945587,66.093796 
	C503.411865,43.884838 490.288391,26.533133 470.736115,14.420760 
	C463.614960,10.009310 455.351074,7.442645 447.608826,4.033590 
	C445.819641,3.245758 444.031708,2.455004 442.121582,1.332799 
	C465.593536,1.000000 489.187042,1.000000 513.000000,1.000000 
	C513.000000,24.353769 513.000000,47.708225 513.000000,71.531342 
z"/>
<path fill="#FE3366" opacity="1.000000" stroke="none" 
	d="
M220.595856,268.104614 
	C220.094818,224.307541 258.573395,172.921921 331.154633,179.796219 
	C331.154633,177.801651 331.154602,175.874878 331.154633,173.948120 
	C331.154907,154.952194 331.148712,135.956268 331.159088,116.960335 
	C331.162628,110.461708 331.181519,110.445572 337.932251,110.437637 
	C349.263153,110.424324 360.594055,110.426918 371.924957,110.436371 
	C378.876099,110.442169 378.886749,110.453506 378.887054,117.209885 
	C378.889893,181.196167 378.842255,245.182526 378.938080,309.168671 
	C378.952789,318.986725 379.812256,328.803436 379.831726,338.621643 
	C379.835632,340.587128 378.251221,343.712494 376.629150,344.352966 
	C346.750305,356.150696 315.888306,361.318634 284.176056,354.204559 
	C244.998672,345.415833 222.950424,318.244080 220.852554,278.050507 
	C220.687607,274.890259 220.670792,271.722290 220.595856,268.104614 
M331.158020,262.500061 
	C331.157288,250.005310 331.073242,237.509628 331.212555,225.016434 
	C331.248688,221.772827 330.412811,219.921875 326.882721,219.906693 
	C325.394531,219.900284 323.911407,219.522049 322.419739,219.377411 
	C298.138245,217.023254 275.360077,232.360031 270.502502,254.544495 
	C268.108246,265.478973 268.632446,276.381989 271.995667,287.108185 
	C276.692047,302.086304 286.595276,311.798828 302.036621,314.539276 
	C310.126312,315.975006 318.586761,315.380493 326.882843,315.565552 
	C330.193085,315.639404 331.263855,313.828583 331.228760,310.479614 
	C331.064758,294.821228 331.157227,279.160217 331.158020,262.500061 
z"/>
<path fill="#FD3265" opacity="1.000000" stroke="none" 
	d="
M187.009598,162.000000 
	C187.009537,224.125626 187.010880,285.751251 187.007568,347.376892 
	C187.007172,354.715088 186.903702,354.814423 179.369141,354.820587 
	C168.376465,354.829620 157.383759,354.833496 146.391098,354.818390 
	C139.718948,354.809235 139.418365,354.530609 139.416382,347.734985 
	C139.402359,299.600372 139.407349,251.465744 139.407089,203.331116 
	C139.406967,180.679535 139.519928,158.026978 139.321442,135.377151 
	C139.278564,130.484970 140.588303,128.602371 145.791779,128.757538 
	C157.773163,129.114838 169.773926,128.979248 181.763580,128.811111 
	C185.639465,128.756760 187.134995,130.107590 187.061783,134.019516 
	C186.890427,143.176788 187.008636,152.339493 187.009598,162.000000 
z"/>
<path fill="#4A021F" opacity="1.000000" stroke="none" 
	d="
M331.158020,263.000092 
	C331.157227,279.160217 331.064758,294.821228 331.228760,310.479614 
	C331.263855,313.828583 330.193085,315.639404 326.882843,315.565552 
	C318.586761,315.380493 310.126312,315.975006 302.036621,314.539276 
	C286.595276,311.798828 276.692047,302.086304 271.995667,287.108185 
	C268.632446,276.381989 268.108246,265.478973 270.502502,254.544495 
	C275.360077,232.360031 298.138245,217.023254 322.419739,219.377411 
	C323.911407,219.522049 325.394531,219.900284 326.882721,219.906693 
	C330.412811,219.921875 331.248688,221.772827 331.212555,225.016434 
	C331.073242,237.509628 331.157288,250.005310 331.158020,263.000092 
z"/>
</svg>