<svg version="1.1" id="Layer_1" xmlns="http://www.w3.org/2000/svg" xmlns:xlink="http://www.w3.org/1999/xlink" x="0px" y="0px"
	 width="100%" viewBox="0 0 512 499" enable-background="new 0 0 512 499" xml:space="preserve">
<path fill="#001E36" opacity="1.000000" stroke="none" 
	d="
M1.000002,429.000000 
	C1.000000,310.310699 1.000000,191.621384 1.327433,72.336586 
	C2.401180,70.116982 3.172806,68.503952 3.889513,66.866882 
	C7.347795,58.967655 9.923244,50.526176 14.407029,43.261608 
	C26.591829,23.519962 44.214924,10.484854 66.568184,3.926183 
	C68.498772,3.359728 70.194939,1.994294 72.000000,1.000000 
	C195.022644,1.000000 318.045288,1.000000 441.665131,1.326809 
	C443.885498,2.403443 445.496338,3.181437 447.133942,3.898311 
	C455.033905,7.356531 463.478638,9.927876 470.742340,14.413354 
	C490.477722,26.600313 503.590668,44.163269 510.075806,66.570518 
	C510.634460,68.500771 512.006042,70.195740 513.000000,72.000000 
	C513.000000,190.689316 513.000000,309.378632 512.673279,428.665222 
	C510.092651,435.115326 508.180939,441.128510 505.525848,446.793304 
	C493.732117,471.956085 474.615753,488.808167 447.912018,496.933990 
	C445.823730,497.569458 443.965271,498.960236 442.000000,500.000000 
	C318.977356,500.000000 195.954727,500.000000 72.334778,499.673248 
	C65.885735,497.092499 59.865356,495.195282 54.211311,492.522980 
	C29.123859,480.665802 12.162290,461.641937 4.067361,434.909851 
	C3.435060,432.821747 2.040361,430.964539 1.000002,429.000000 
M162.493362,326.500336 
	C162.493362,311.900604 162.493362,297.300873 162.493362,282.295227 
	C165.206680,282.295227 167.164948,282.349731 169.119385,282.286377 
	C182.082916,281.866211 195.168335,282.403259 207.985962,280.802277 
	C249.038483,275.674744 277.327881,248.966156 277.501251,204.847458 
	C277.628326,172.518799 260.099854,146.240707 229.903793,135.012161 
	C216.615494,130.070847 202.840668,127.933128 188.767563,128.024506 
	C166.775146,128.167297 144.785538,128.718704 122.794212,129.064041 
	C116.139626,129.168549 116.124519,129.118668 116.124077,135.658554 
	C116.120132,193.650620 116.121628,251.642670 116.121597,309.634735 
	C116.121597,322.466309 116.261688,335.300232 116.045052,348.128143 
	C115.970863,352.521637 117.525398,353.972870 121.856018,353.893311 
	C133.517151,353.679077 145.187714,353.670227 156.848404,353.896027 
	C161.312424,353.982452 162.701294,352.242188 162.554825,347.995361 
	C162.319458,341.171112 162.492691,334.332764 162.493362,326.500336 
M418.669189,280.896423 
	C414.094849,273.312134 408.041443,267.110901 400.189178,263.083069 
	C390.591156,258.159729 380.654236,253.901749 370.953827,249.171616 
	C363.662048,245.615997 356.189148,242.255646 349.471710,237.792664 
	C347.073822,236.199539 345.611053,231.628494 345.593719,228.406647 
	C345.570221,224.045303 349.218842,221.440506 353.431213,220.501846 
	C356.822906,219.746078 360.316589,219.075851 363.771790,219.041260 
	C379.424011,218.884552 394.584015,221.346741 408.892334,228.083527 
	C414.007965,230.492111 415.479706,229.484711 415.507538,223.799118 
	C415.555603,213.971436 415.365936,204.139862 415.589935,194.317062 
	C415.689941,189.932297 414.093445,187.268738 409.819214,186.427307 
	C401.028320,184.696762 392.283997,182.363480 383.403290,181.535950 
	C367.611145,180.064377 351.735535,179.913223 336.530121,185.633179 
	C316.948425,192.999466 303.945404,206.347275 301.195435,227.615723 
	C298.351135,249.614166 308.101807,265.934998 326.869629,276.522705 
	C338.112701,282.865387 350.342346,287.444458 362.034088,293.014526 
	C366.209259,295.003601 370.538513,297.060669 374.037842,299.993103 
	C380.689728,305.567444 379.061310,313.814850 370.977386,316.888306 
	C368.214264,317.938782 365.213470,318.671478 362.271576,318.894592 
	C342.547882,320.390808 323.871124,316.561249 306.289642,307.454620 
	C304.743286,306.653625 303.132904,305.976318 300.829041,304.905396 
	C300.565765,307.315216 300.250610,308.893372 300.243896,310.472839 
	C300.199219,320.966858 300.372406,331.464478 300.145172,341.953766 
	C300.055359,346.099182 301.476807,348.823212 305.440674,349.775757 
	C316.557953,352.447296 327.597198,355.953796 338.885162,357.290649 
	C357.894470,359.541931 376.817169,358.452850 394.647644,350.171173 
	C421.084412,337.892151 431.826874,307.658997 418.669189,280.896423 
z"/>
<path fill="#000000" opacity="1.000000" stroke="none" 
	d="
M1.000002,429.468658 
	C2.040361,430.964539 3.435060,432.821747 4.067361,434.909851 
	C12.162290,461.641937 29.123859,480.665802 54.211311,492.522980 
	C59.865356,495.195282 65.885735,497.092499 71.868744,499.673248 
	C48.406475,500.000000 24.812948,500.000000 1.000000,500.000000 
	C1.000000,476.646240 1.000000,453.291779 1.000002,429.468658 
z"/>
<path fill="#000000" opacity="1.000000" stroke="none" 
	d="
M442.468658,500.000000 
	C443.965271,498.960236 445.823730,497.569458 447.912018,496.933990 
	C474.615753,488.808167 493.732117,471.956085 505.525848,446.793304 
	C508.180939,441.128510 510.092651,435.115326 512.673279,429.131256 
	C513.000000,452.593536 513.000000,476.187042 513.000000,500.000000 
	C489.646240,500.000000 466.291779,500.000000 442.468658,500.000000 
z"/>
<path fill="#000000" opacity="1.000000" stroke="none" 
	d="
M71.531342,1.000000 
	C70.194939,1.994294 68.498772,3.359728 66.568184,3.926183 
	C44.214924,10.484854 26.591829,23.519962 14.407029,43.261608 
	C9.923244,50.526176 7.347795,58.967655 3.889513,66.866882 
	C3.172806,68.503952 2.401180,70.116982 1.327433,71.870544 
	C1.000000,48.406475 1.000000,24.812954 1.000000,1.000000 
	C24.353769,1.000000 47.708225,1.000000 71.531342,1.000000 
z"/>
<path fill="#000000" opacity="1.000000" stroke="none" 
	d="
M513.000000,71.531342 
	C512.006042,70.195740 510.634460,68.500771 510.075806,66.570518 
	C503.590668,44.163269 490.477722,26.600313 470.742340,14.413354 
	C463.478638,9.927876 455.033905,7.356531 447.133942,3.898311 
	C445.496338,3.181437 443.885498,2.403443 442.131165,1.326809 
	C465.593536,1.000000 489.187042,1.000000 513.000000,1.000000 
	C513.000000,24.353769 513.000000,47.708225 513.000000,71.531342 
z"/>
<path fill="#31A7FE" opacity="1.000000" stroke="none" 
	d="
M162.493317,327.000366 
	C162.492691,334.332764 162.319458,341.171112 162.554825,347.995361 
	C162.701294,352.242188 161.312424,353.982452 156.848404,353.896027 
	C145.187714,353.670227 133.517151,353.679077 121.856018,353.893311 
	C117.525398,353.972870 115.970863,352.521637 116.045052,348.128143 
	C116.261688,335.300232 116.121597,322.466309 116.121597,309.634735 
	C116.121628,251.642670 116.120132,193.650620 116.124077,135.658554 
	C116.124519,129.118668 116.139626,129.168549 122.794212,129.064041 
	C144.785538,128.718704 166.775146,128.167297 188.767563,128.024506 
	C202.840668,127.933128 216.615494,130.070847 229.903793,135.012161 
	C260.099854,146.240707 277.628326,172.518799 277.501251,204.847458 
	C277.327881,248.966156 249.038483,275.674744 207.985962,280.802277 
	C195.168335,282.403259 182.082916,281.866211 169.119385,282.286377 
	C167.164948,282.349731 165.206680,282.295227 162.493362,282.295227 
	C162.493362,297.300873 162.493362,311.900604 162.493317,327.000366 
M224.909821,184.681503 
	C220.459991,178.714645 214.475082,175.115463 207.453415,172.838577 
	C192.951004,168.135880 178.150009,170.570312 163.183136,170.071045 
	C163.183136,194.349365 163.183136,218.028305 163.183136,242.001648 
	C177.190903,242.353607 190.776703,243.162323 204.181580,239.309235 
	C229.312469,232.085663 238.939621,207.690369 224.909821,184.681503 
z"/>
<path fill="#31A7FE" opacity="1.000000" stroke="none" 
	d="
M418.846924,281.219299 
	C431.826874,307.658997 421.084412,337.892151 394.647644,350.171173 
	C376.817169,358.452850 357.894470,359.541931 338.885162,357.290649 
	C327.597198,355.953796 316.557953,352.447296 305.440674,349.775757 
	C301.476807,348.823212 300.055359,346.099182 300.145172,341.953766 
	C300.372406,331.464478 300.199219,320.966858 300.243896,310.472839 
	C300.250610,308.893372 300.565765,307.315216 300.829041,304.905396 
	C303.132904,305.976318 304.743286,306.653625 306.289642,307.454620 
	C323.871124,316.561249 342.547882,320.390808 362.271576,318.894592 
	C365.213470,318.671478 368.214264,317.938782 370.977386,316.888306 
	C379.061310,313.814850 380.689728,305.567444 374.037842,299.993103 
	C370.538513,297.060669 366.209259,295.003601 362.034088,293.014526 
	C350.342346,287.444458 338.112701,282.865387 326.869629,276.522705 
	C308.101807,265.934998 298.351135,249.614166 301.195435,227.615723 
	C303.945404,206.347275 316.948425,192.999466 336.530121,185.633179 
	C351.735535,179.913223 367.611145,180.064377 383.403290,181.535950 
	C392.283997,182.363480 401.028320,184.696762 409.819214,186.427307 
	C414.093445,187.268738 415.689941,189.932297 415.589935,194.317062 
	C415.365936,204.139862 415.555603,213.971436 415.507538,223.799118 
	C415.479706,229.484711 414.007965,230.492111 408.892334,228.083527 
	C394.584015,221.346741 379.424011,218.884552 363.771790,219.041260 
	C360.316589,219.075851 356.822906,219.746078 353.431213,220.501846 
	C349.218842,221.440506 345.570221,224.045303 345.593719,228.406647 
	C345.611053,231.628494 347.073822,236.199539 349.471710,237.792664 
	C356.189148,242.255646 363.662048,245.615997 370.953827,249.171616 
	C380.654236,253.901749 390.591156,258.159729 400.189178,263.083069 
	C408.041443,267.110901 414.094849,273.312134 418.846924,281.219299 
z"/>
<path fill="#001E37" opacity="1.000000" stroke="none" 
	d="
M225.111725,184.984406 
	C238.939621,207.690369 229.312469,232.085663 204.181580,239.309235 
	C190.776703,243.162323 177.190903,242.353607 163.183136,242.001648 
	C163.183136,218.028305 163.183136,194.349365 163.183136,170.071045 
	C178.150009,170.570312 192.951004,168.135880 207.453415,172.838577 
	C214.475082,175.115463 220.459991,178.714645 225.111725,184.984406 
z"/>
</svg>